<svg width="24" height="22" xmlns="http://www.w3.org/2000/svg"><path d="M12.046 2.055c.117.14.583.715.702.857 2.124 2.549 4.22 3.091 9.356 1.035 1.2-.48 2.465.632 1.623 1.855-5.401 7.848-7.887 9.219-10.788 7.022a36.86 36.86 0 01-.423-.328c-1.703-1.323-3.57-.844-6.329 1.379l2.796 7.488-1.73.559L0 3.536l3.01-1.08c4.522-3.28 6.758-3.133 9.036-.401zm-.699 2.024c-.128-.154-.594-.728-.702-.857-1.643-1.971-2.81-2.037-6.666.783l-.106.078-1.487.534 3.014 7.64c3.704-3.085 5.782-3.105 8.234-1.2l.405.314c1.644 1.244 3.076.61 7.175-5.155-4.85 1.612-7.485.722-9.867-2.137z" fill="#444"/></svg>