<svg width="29" height="20" xmlns="http://www.w3.org/2000/svg"><path d="M12.54 11.636c.154.112.431.266.85.443.648.276.9.347 1.424.446l.098.019c.5.098.901.238 1.542.565.984.502 1.669 1.291 2.085 2.265.39.913.5 1.834.464 2.606-.004.076-.004.076-.003.02 0 1.03-.98 2-2 2H2c-.996 0-1.953-.926-1.998-1.926-.042-.4.006-1.188.187-1.893.34-1.328 1.09-2.426 2.357-3.072.64-.327 1.042-.467 1.542-.565l.097-.019c.525-.099.777-.17 1.425-.446.487-.206.807-.384.982-.516l.01-1.074a3.708 3.708 0 01-.356-.603 5.236 5.236 0 01-.38-1.135 1.587 1.587 0 01-.45-.578c-.14-.3-.211-.648-.233-1a8.45 8.45 0 00-.028-.287 7.977 7.977 0 01-.031-.389c-.019-.352-.004-.638.077-.91.042-.14.102-.27.178-.386-.078-.686-.103-1.153-.07-1.5.184-1.946 1.953-3.58 4.314-3.7 2.506.112 4.017 1.63 4.212 3.698.034.348.008.787-.076 1.503.076.116.136.246.177.385.081.273.095.56.076.911a7.894 7.894 0 01-.033.39l-.03.28a2.71 2.71 0 01-.233 1.004c-.109.23-.261.428-.448.575a5.222 5.222 0 01-.381 1.132c-.115.24-.236.44-.358.604l.01 1.153zm-2 .036l-.014-1.558a1 1 0 01.387-.799c-.006.004.067-.083.17-.3.138-.287.247-.666.309-1.15a.997.997 0 01.558-.774l.004-.043c.005-.084.016-.185.036-.368.012-.113.02-.201.024-.282a.993.993 0 01-.312-.862c.118-.903.163-1.425.142-1.647C11.74 2.79 11.02 2.066 9.631 2c-1.29.068-2.242.948-2.331 1.892-.022.23.024.787.136 1.646a.993.993 0 01-.314.865c.004.08.012.168.023.283a8.44 8.44 0 01.038.41.997.997 0 01.559.776c.061.484.17.863.309 1.153.103.217.176.306.172.302a1 1 0 01.383.797l-.015 1.633c.078.811-.644 1.504-2.2 2.164-.792.337-1.178.446-1.834.57l-.083.016c-.316.063-.542.141-1.02.385-.699.356-1.12.972-1.328 1.786a4.402 4.402 0 00-.13.9c-.006.142-.001.319-.014.232L2 18h15c-.08 0 0-.08.004-.086l.001-.026a4.058 4.058 0 00-.305-1.728c-.242-.565-.613-.993-1.154-1.27-.478-.243-.704-.322-1.02-.384l-.083-.016c-.656-.124-1.042-.233-1.834-.57-1.522-.645-2.242-1.392-2.07-2.248zm7.036-4.133c.05.366.139.647.249.859.077.148.123.2.101.184a1 1 0 01.416.826l-.014 1.042a1 1 0 01-2-.028l.01-.643a3.255 3.255 0 01-.287-.458 4.195 4.195 0 01-.338-.9 1.494 1.494 0 01-.396-.491 2.332 2.332 0 01-.232-.907 6.653 6.653 0 00-.024-.22 6.2 6.2 0 01-.028-.329c-.018-.314-.004-.573.08-.83.034-.105.08-.204.136-.295-.063-.528-.082-.895-.052-1.183.175-1.688 1.798-3.066 3.93-3.165 2.255.093 3.65 1.38 3.834 3.161.03.293.012.637-.056 1.187.056.091.101.19.135.295.084.258.098.517.079.832a6.126 6.126 0 01-.03.33c-.02.162-.024.2-.025.214-.02.315-.09.633-.233.91-.1.193-.234.36-.395.488-.086.334-.2.634-.338.898a3.24 3.24 0 01-.288.46l.003.34c.292.123.71.292 1.277.513.568.222.748.27 1.063.32l.054.009c.367.06.678.165 1.258.437.924.432 1.584 1.15 2.012 2.052.415.874.55 1.724.55 2.337V17a2 2 0 01-2 2h-4.06a1 1 0 110-2h4.06v-1.216c0-.07-.011-.228-.045-.44a3.835 3.835 0 00-.312-1.04c-.24-.506-.582-.878-1.052-1.098-.426-.2-.569-.247-.738-.275l-.04-.007c-.456-.072-.775-.158-1.476-.431-1.191-.464-1.792-.726-2.018-.848a1 1 0 01-.527-.87l-.013-1.378a1 1 0 01.419-.824c-.023.016.023-.035.1-.182.11-.21.198-.49.248-.855a.997.997 0 01.503-.736 12.339 12.339 0 01.037-.327.993.993 0 01-.265-.829c.1-.71.14-1.124.124-1.274-.081-.787-.658-1.319-1.838-1.371-1.098.053-1.88.716-1.948 1.373-.016.157.024.6.12 1.274a.993.993 0 01-.268.83l.012.108.024.22c.262.146.457.41.502.735z" fill="#444"/></svg>